<?xml version="1.0" encoding="utf-8"?>
<!-- Generator: Adobe Illustrator 16.0.0, SVG Export Plug-In . SVG Version: 6.00 Build 0)  -->
<!DOCTYPE svg PUBLIC "-//W3C//DTD SVG 1.1//EN" "http://www.w3.org/Graphics/SVG/1.1/DTD/svg11.dtd">
<svg version="1.1" id="Ebene_1" xmlns="http://www.w3.org/2000/svg" xmlns:xlink="http://www.w3.org/1999/xlink" x="0px" y="0px"
	 width="566.93px" height="215.231px" viewBox="0 0 566.93 215.231" enable-background="new 0 0 566.93 215.231"
	 xml:space="preserve">
<path fill="none" d="M296.565,107.547c1.515,1.88,4.444,2.817,8.788,2.817V85.536c-3.66-0.002-7.355-0.007-11.063-0.011v11.492
	C294.29,102.159,295.047,105.669,296.565,107.547z"/>
<path d="M92.979,86.719l-8.741,0.688l-0.929-3.89l1.163,0.028c-4.993-0.144-8.994-0.282-12.186-0.404v27.468
	c0,4.162-0.738,7.266-2.213,9.307c-1.641,2.123-3.362,3.183-5.164,3.183l1.967,3.918l25.202-10.532v-3.797
	c-2.05,0-3.403-0.651-4.059-1.959c-0.656-1.303-0.983-3.467-0.983-6.489V91.872c4.261-1.304,9.651-3.263,16.166-5.878
	c1.753-0.703,3.25-1.325,4.53-1.879c-4.309-0.088-8.235-0.179-11.816-0.265L92.979,86.719z"/>
<path d="M67.246,38.726c3.36,0.654,5.042,3.472,5.042,8.45v33.363c4.007-0.009,8.968-0.019,14.75-0.032V42.645
	c1.721-1.224,3.318-1.837,4.794-1.837c4.179,0,6.27,3.022,6.27,9.061v30.003c0,0.207-0.086,0.409-0.138,0.614
	c4.651-0.011,9.667-0.022,15.012-0.035V43.134c0-2.695-1.413-5.714-4.241-9.063c-2.828-3.347-4.897-5.02-6.208-5.02
	c-1.312,0-6.476,2.735-15.49,8.205c0-1.388-0.819-2.94-2.458-4.654c-1.641-1.714-3.277-2.897-4.917-3.551l-12.417,6.979V38.726z"/>
<path d="M124.037,104.486c0,4.573,2.23,8.816,6.7,12.735c4.465,3.919,7.969,5.878,10.509,5.878c1.23,0,4.672-1.121,10.326-3.368
	c5.654-2.244,8.687-3.367,9.098-3.367v-3.553c-3.688,0-7.129-0.162-10.326-0.488c-3.196-0.327-6.147-1.632-8.85-3.918
	c-1.805-1.551-2.707-6.859-2.707-15.92v-7.827c-5.252-0.078-10.164-0.157-14.75-0.237V104.486z"/>
<path d="M138.787,80.238h11.187l6.147-3.061v-2.94h-17.333V41.909c0.656-0.814,1.395-1.224,2.213-1.224
	c1.146,0,2.663,3.328,4.549,9.98c1.884,6.655,3.441,9.982,4.671,9.982c0.325,0,2.642-1.041,6.945-3.123
	c4.301-2.083,7.354-3.532,9.158-4.349v-2.448c-2.624,0-4.407-0.795-5.347-2.389c-0.944-1.592-1.846-4.059-2.706-7.407
	c-0.861-3.347-1.62-6.203-2.273-8.573c-0.659-2.366-1.231-3.552-1.721-3.552c-1.396,0-6.784,1.736-16.166,5.206
	c-9.384,3.471-14.075,5.491-14.075,6.061V80.43c4.722-0.011,9.645-0.021,14.75-0.033V80.238z"/>
<path d="M188.449,41.42c4.343,0,7.272,0.938,8.791,2.816c1.514,1.879,2.272,5.388,2.272,10.532v25.498
	c4.855-0.009,9.776-0.02,14.753-0.03V43.38c0-2.858-1.148-6.001-3.444-9.432c-2.294-3.428-4.752-5.143-7.375-5.143
	c-1.148,0-4.752,1.715-10.818,5.143c-2.295,1.308-3.687,2.083-4.18,2.328c0-1.714-0.674-3.224-2.027-4.53
	c-1.353-1.305-2.44-2.101-3.257-2.39c-0.821-0.284-1.518-0.507-2.09-0.673c-8.36,4.899-12.827,7.39-13.399,7.47v2.694
	c1.721,0,3.155,0.979,4.303,2.939c1.146,1.959,1.722,4.287,1.722,6.981v31.555c4.826-0.011,9.747-0.021,14.749-0.033V41.42z"/>
<path d="M199.512,114.771c0,1.472,0.78,3.043,2.337,4.714c1.555,1.676,3.237,2.878,5.039,3.614l13.399-7.469v-2.695
	c-4.016-0.815-6.021-3.469-6.021-7.96V85.407c-5.717-0.016-10.696-0.035-14.753-0.058V114.771z"/>
<path d="M173.7,109.138c0,5.063-0.861,8.737-2.583,11.023c-1.557,1.959-3.155,2.938-4.794,2.938l1.968,3.918l25.201-10.532v-3.797
	c-1.723,0-2.994-0.589-3.811-1.774c-0.823-1.183-1.231-3.409-1.231-6.674V85.258c-5.117-0.049-10.025-0.101-14.749-0.152V109.138z"
	/>
<path d="M241.307,45.217c1.557-1.227,3.156-1.836,4.794-1.836c4.18,0,6.27,2.897,6.27,8.693v28.08
	c4.936-0.011,9.896-0.019,14.875-0.03V42.89c0-2.695-1.413-5.715-4.241-9.062c-2.828-3.346-4.979-5.022-6.454-5.022l-15.244,8.573
	c0-1.471-0.778-3.041-2.335-4.714c-1.557-1.673-3.237-2.878-5.04-3.613l-12.416,6.979v2.695c3.36,0.736,5.041,3.306,5.041,7.715
	V80.21c4.877-0.011,9.796-0.021,14.75-0.032V45.217z"/>
<path d="M252.371,109.874c-1.642,1.308-3.239,1.959-4.794,1.959c-4.178,0-6.27-3.019-6.27-9.061V85.465
	c-5.157-0.009-10.094-0.018-14.75-0.028v19.783c0,4.899,1.291,9.104,3.873,12.615c2.58,3.51,4.875,5.265,6.884,5.265
	c2.007,0,7.498-1.733,16.471-5.205c8.975-3.469,13.462-5.53,13.462-6.184V85.497c-5.048-0.004-10.025-0.01-14.875-0.017V109.874z"/>
<path d="M320.105,45.094c0-4.164,0.738-7.265,2.211-9.309c1.639-2.121,3.36-3.183,5.164-3.183l-1.967-3.919l-25.2,10.532v3.796
	c2.049,0,3.398,0.654,4.058,1.959c0.654,1.306,0.982,3.469,0.982,6.489v28.556c4.92-0.004,9.838,0.019,14.752,0.052V45.094z"/>
<path d="M294.29,37.012c0-1.47-0.778-3.042-2.336-4.714c-1.557-1.674-3.237-2.878-5.04-3.614l-13.399,7.47v2.694
	c4.016,0.818,6.024,3.472,6.024,7.96v33.291c4.912-0.011,9.83-0.021,14.751-0.033V37.012z"/>
<path d="M305.354,110.364c-4.344,0-7.273-0.938-8.788-2.817c-1.519-1.878-2.275-5.388-2.275-10.53V85.525
	c-4.908-0.004-9.841-0.009-14.751-0.016v22.896c0,2.938,1.147,6.104,3.441,9.489c2.293,3.389,4.751,5.082,7.375,5.082
	c1.147,0,4.754-1.714,10.819-5.142c2.293-1.306,3.686-2.083,4.179-2.328c0,1.714,0.676,3.226,2.028,4.532s2.438,2.101,3.259,2.388
	c0.816,0.286,1.514,0.509,2.088,0.673c8.359-4.897,12.825-7.388,13.399-7.469v-2.695c-1.72,0-3.155-0.979-4.301-2.938
	c-1.148-1.959-1.722-4.287-1.722-6.981V85.553c-4.816-0.006-9.751-0.011-14.752-0.017V110.364z"/>
<path d="M347.146,45.094c0-4.164,0.738-7.265,2.213-9.309c1.64-2.121,3.359-3.183,5.162-3.183l-1.966-3.919l-25.201,10.532v3.796
	c2.049,0,3.401,0.654,4.058,1.959c0.655,1.306,0.985,3.469,0.985,6.489v28.705c4.939,0.048,9.863,0.094,14.749,0.14V45.094z"/>
<path d="M332.396,104.609c0,3.592,1.309,6.9,3.933,9.917c2.622,3.022,5.244,5.206,7.868,6.554c2.621,1.347,4.688,2.02,6.207,2.02
	c1.514,0,7.724-2.284,18.624-6.856v-3.431c-5.247,0-10.041-0.488-14.383-1.469c-1.886-0.491-3.812-1.96-5.778-4.41
	c-1.148-1.303-1.722-5.222-1.722-11.754v-9.586c-4.653-0.009-9.599-0.018-14.749-0.023V104.609z"/>
<path d="M392.383,80.174V37.012c0-1.47-0.778-3.042-2.336-4.714c-1.557-1.674-3.236-2.878-5.038-3.614l-13.4,7.47v2.694
	c4.016,0.818,6.025,3.472,6.025,7.96v33.594c1.075-0.007,2.167-0.007,3.234-0.016C384.746,80.412,388.582,80.315,392.383,80.174z"/>
<path d="M418.2,79.294v-34.2c0-4.164,0.737-7.265,2.21-9.309c1.64-2.121,3.359-3.183,5.164-3.183l-1.968-3.919l-25.198,10.532v3.796
	c2.047,0,3.398,0.654,4.056,1.959c0.654,1.306,0.982,3.469,0.982,6.489v28.228C408.454,79.458,413.375,79.276,418.2,79.294z"/>
<path d="M403.446,110.364c-4.344,0-7.273-0.938-8.788-2.817c-1.518-1.878-2.275-5.388-2.275-10.53V85.639
	c-3.802,0.025-7.634,0.051-11.515,0.079c-0.952-0.008-2.043-0.017-3.234-0.024v22.711c0,2.938,1.146,6.104,3.441,9.489
	c2.293,3.389,4.751,5.082,7.375,5.082c1.146,0,4.753-1.714,10.818-5.142c2.292-1.306,3.687-2.083,4.178-2.328
	c0,1.714,0.676,3.226,2.028,4.532c1.354,1.306,2.438,2.101,3.259,2.388c0.817,0.286,1.515,0.509,2.089,0.673
	c8.36-4.897,12.824-7.388,13.398-7.469v-2.695c-1.72,0-3.153-0.979-4.301-2.938c-1.148-1.959-1.72-4.287-1.72-6.981V85.359
	c-4.825,0.079-9.746,0.14-14.754,0.187V110.364z"/>
<path d="M445.241,41.42c4.343,0,7.272,0.938,8.791,2.816c1.513,1.879,2.272,5.388,2.272,10.532v25.063
	c5.128,0.118,10.049,0.232,14.752,0.342V41.42c4.18,0.164,7.068,1.205,8.667,3.121c1.597,1.921,2.397,5.327,2.397,10.227v25.663
	c1.267,0.03,2.566,0.06,3.792,0.088c3.879,0.086,7.53,0.181,10.958,0.282V43.38c0-2.858-1.148-6.001-3.441-9.432
	c-2.295-3.428-4.755-5.143-7.376-5.143c-1.313,0-5.163,1.635-11.556,4.9c-3.195,1.632-4.875,2.491-5.038,2.57
	c-0.904-2.039-2.235-3.796-3.997-5.265c-1.764-1.469-3.361-2.205-4.794-2.205c-1.435,0-5.184,1.715-11.249,5.143
	c-2.294,1.308-3.686,2.083-4.179,2.328c0-1.714-0.676-3.224-2.028-4.53c-1.353-1.305-2.438-2.101-3.256-2.39
	c-0.822-0.284-1.519-0.507-2.091-0.673c-8.359,4.899-12.828,7.39-13.399,7.47v2.694c1.722,0,3.155,0.979,4.304,2.939
	c1.146,1.959,1.72,4.287,1.72,6.981v30.681c5.058,0.076,9.968,0.148,14.751,0.217V41.42z"/>
<path d="M482.121,84.193v30.578c0,1.472,0.776,3.043,2.334,4.714c1.557,1.676,3.236,2.878,5.041,3.614l13.399-7.469v-2.695
	c-4.018-0.815-6.024-3.469-6.024-7.96V83.824c-3.428,0.101-7.079,0.195-10.958,0.282C484.688,84.133,483.388,84.164,482.121,84.193z
	"/>
<path d="M456.305,114.771c0,1.472,0.779,3.043,2.336,4.714c1.556,1.676,3.237,2.878,5.04,3.614l13.398-7.469v-2.695
	c-4.015-0.815-6.022-3.469-6.022-7.96V84.452c-4.703,0.11-9.624,0.224-14.752,0.342V114.771z"/>
<path d="M430.49,110.609c0,4.162-0.736,7.266-2.212,9.307c-1.642,2.123-3.361,3.183-5.164,3.183l1.968,3.918l25.2-10.532v-3.797
	c-2.05,0-3.402-0.651-4.058-1.959c-0.656-1.303-0.983-3.467-0.983-6.489V84.959c-4.783,0.069-9.693,0.142-14.751,0.217V110.609z"/>
<path d="M44.161,141.229c1.848,1.34,3.291,3.028,4.328,5.059c1.036,2.034,1.557,4.189,1.557,6.468c0,1.386-0.353,5.025-1.059,10.925
	c-0.706,5.897-1.058,9.336-1.058,10.321c0,4.244,0.813,8.234,2.443,11.962c1.631,3.73,3.915,6.825,6.849,9.284
	c2.934,2.455,7.954,4.344,11.946,4.826l-2.409-2.134c-3.837-1.073-6.601-3.51-8.623-6.348c-2.02-2.836-3.03-5.998-3.03-9.482
	c0-1.431,0.396-5.051,1.187-10.856c0.688-6.167,1.032-9.718,1.032-10.655c0-5.096-1.312-9.686-3.932-13.774
	c-1.686-2.632-3.85-4.787-6.395-6.558c-0.79,0.482-1.797,0.805-2.918,0.908C44.106,141.193,44.134,141.209,44.161,141.229z"/>
<path d="M43.31,134.161c0.585,0,1.138,0.076,1.667,0.189c1.368-1.49,2.648-3.153,3.814-5.032c1.86-3.007,3.419-6.324,4.68-9.958
	c1.256-3.635,2.215-7.558,2.869-11.78c0.656-4.213,0.985-8.747,0.985-13.589c0-1.333-0.129-4.181-0.387-8.517
	c-0.258-4.348-0.534-8.811-0.826-13.409c-0.292-4.592-0.534-8.539-0.723-11.835c-0.189-3.302-0.284-5.453-0.284-6.453
	c0-4.093,0.105-8.046,0.963-11.93c0.856-3.882,2.405-10.068,4.22-13.032c1.817-2.966,4.45-6.471,8.992-7.158l-2.355-0.955
	c-3.536,1.086-6.77,3.927-9.704,8.519c-2.934,4.594-5.218,10.376-6.849,17.351c-1.629,6.975-2.443,14.429-2.443,22.366
	c0,2.669,0.361,9.435,1.084,20.292c0.688,10.855,1.032,17.327,1.032,19.418c0,4.258-0.521,8.291-1.557,12.085
	c-1.037,3.805-2.48,6.956-4.328,9.461c-1.434,1.942-2.959,3.29-4.57,4.078c0.058,0.258,0.105,0.521,0.146,0.785
	C40.692,134.507,41.934,134.161,43.31,134.161z"/>
<path d="M524.536,141.226c-0.614,0-1.195-0.082-1.745-0.204c-1.126,0.815-2.186,1.703-3.145,2.702
	c-2.237,2.322-3.941,4.97-5.111,7.94c-1.169,2.973-1.754,6.135-1.754,9.485c0,0.849,0.369,4.389,1.109,10.621
	c0.74,6.233,1.109,9.864,1.109,10.893c0,3.483-0.997,6.645-2.993,9.482c-1.997,2.836-5.466,5.458-9.354,6.531l-2.983,2.155
	c4.681-0.32,10.341-2.577,13.267-5.033c2.925-2.458,5.196-5.562,6.813-9.316c1.617-3.752,2.427-7.73,2.427-11.93
	c0-1.16-0.345-4.78-1.032-10.856c-0.723-6.121-1.085-9.584-1.085-10.388c0-3.485,1.127-6.558,3.382-9.217
	c1.458-1.721,3.188-2.951,5.132-3.781c-0.003-0.092-0.003-0.187-0.004-0.279C527.576,140.76,526.146,141.226,524.536,141.226z"/>
<path d="M528.572,135.358c0.008-0.434,0.034-0.847,0.077-1.236c-1.983-1.553-3.726-3.947-5.209-7.22
	c-2.255-4.971-3.382-10.711-3.382-17.224c0-2.26,0.353-8.852,1.06-19.795c0.705-10.944,1.058-17.581,1.058-19.917
	c0-7.854-0.81-15.286-2.427-22.304c-1.617-7.011-3.889-12.816-6.813-17.413c-2.926-4.59-6.177-7.434-9.756-8.519l-2.959,0.935
	c7.982,2.02,10.461,8.642,12.456,13.948C514.673,41.917,515,48.292,515,54.805c0,1.002-0.379,7.765-1.136,20.295
	c-0.723,11.022-1.083,17.665-1.083,19.92c0,6.263,0.585,12.174,1.754,17.725c1.17,5.553,2.874,10.502,5.111,14.847
	c1.299,2.525,2.77,4.7,4.372,6.604c0.175-0.011,0.342-0.035,0.518-0.035C526.148,134.161,527.578,134.629,528.572,135.358z"/>
<path d="M82.286,159.697c0.544,0,1.105-0.25,1.68-0.749c0.574-0.498,1.045-1.064,1.409-1.696l-2.589-4.093h-0.998
	c-0.243,1.099-1.289,1.646-3.133,1.646H66.663c-0.544,0-1.105,0.25-1.68,0.749c-0.574,0.499-1.045,1.064-1.409,1.697l2.59,4.093
	h0.998c0.243-1.099,1.289-1.647,3.134-1.647h2.862l-1.409,1.497v26.45c0,1.697-0.273,2.962-0.817,3.793
	c-0.606,0.866-1.24,1.299-1.907,1.299l0.727,1.597l9.311-4.292v-1.546c-0.757,0-1.259-0.268-1.5-0.802
	c-0.243-0.531-0.363-1.413-0.363-2.643v-25.354H82.286z"/>
<path d="M100.088,160.147c0-1.101-0.522-2.331-1.566-3.694c-1.045-1.366-1.825-2.047-2.339-2.047s-2.497,0.708-5.949,2.121
	c-3.452,1.415-5.177,2.238-5.177,2.47v28.647c0,1.697-0.273,2.962-0.817,3.793c-0.606,0.866-1.243,1.299-1.907,1.299l0.727,1.597
	l9.308-4.292v-1.546c-0.757,0-1.256-0.268-1.497-0.802c-0.243-0.531-0.363-1.413-0.363-2.643v-9.384h4.086v13.675
	c0,0.6,0.289,1.24,0.863,1.92c0.576,0.685,1.196,1.175,1.863,1.475l4.951-3.044v-1.099c-1.454-0.331-2.181-1.414-2.181-3.244v-9.683
	l2.226-1.247v-1.199h-2.226V160.147z M94.593,173.221h-1.406l-2.68,1.3v-14.725c0.574-0.499,1.164-0.749,1.77-0.749
	c1.544,0,2.316,1.232,2.316,3.693V173.221z"/>
<path d="M117.28,159.247c-0.319-1.363-0.601-2.526-0.841-3.492c-0.243-0.967-0.454-1.448-0.637-1.448
	c-0.514,0-2.505,0.708-5.97,2.121c-3.469,1.416-5.201,2.238-5.201,2.471v24.902c0,2.132,0.682,4.151,2.043,6.065
	c1.362,1.912,2.8,2.87,4.315,2.87c0.453,0,1.725-0.457,3.815-1.373c2.089-0.913,3.209-1.373,3.36-1.373v-1.446
	c-3.573,0-5.859-0.798-6.857-2.396c-0.516-0.829-0.848-1.671-1-2.521c-0.151-0.848-0.227-1.971-0.227-3.369v-20.61
	c0.241-0.334,0.514-0.5,0.817-0.5c0.424,0,0.983,1.355,1.68,4.067c0.697,2.712,1.271,4.067,1.726,4.067
	c0.122,0,0.976-0.424,2.566-1.273c1.591-0.848,2.718-1.438,3.385-1.772v-0.997c-0.97,0-1.629-0.323-1.977-0.973
	C117.929,161.617,117.595,160.613,117.28,159.247z"/>
<path d="M139.571,157.682c0.1-0.144,0.213-0.278,0.3-0.43l-2.59-4.093h-0.998c-0.243,1.099-1.289,1.646-3.134,1.646h-11.99
	c-0.544,0-1.106,0.25-1.68,0.749c-0.574,0.499-1.045,1.064-1.409,1.697l2.59,4.093h0.998c0.243-1.099,1.289-1.647,3.134-1.647h2.862
	l-1.409,1.497v26.45c0,1.697-0.273,2.962-0.817,3.793c-0.606,0.866-1.241,1.299-1.908,1.299l0.727,1.597l9.311-4.292v-1.546
	c-0.756,0-1.258-0.268-1.499-0.802c-0.243-0.531-0.363-1.413-0.363-2.643v-25.354h5.086c0.298,0,0.603-0.091,0.91-0.242v-0.907
	L139.571,157.682z"/>
<path d="M145.823,157.151c0.604-0.866,1.241-1.297,1.908-1.297l-0.727-1.596l-7.432,3.424c-0.315,0.458-0.672,0.888-1.108,1.266
	c-0.261,0.227-0.516,0.386-0.77,0.507v0.641c0.757,0,1.256,0.267,1.499,0.799c0.241,0.531,0.363,1.412,0.363,2.645v22.808
	c0,1.63-0.318,2.846-0.955,3.643c-0.241,0.3-0.537,0.566-0.884,0.799c-0.349,0.232-0.643,0.349-0.886,0.349l0.728,1.599
	c0.03,0,3.116-1.479,9.263-4.441v-1.398c-0.667,0-1.136-0.192-1.407-0.574c-0.273-0.381-0.409-1.021-0.409-1.922v-23.456
	C145.005,159.247,145.276,157.982,145.823,157.151z"/>
<path d="M156.222,186.147c-0.516-0.829-0.848-1.671-1-2.521c-0.151-0.848-0.226-1.971-0.226-3.369v-20.61
	c0.24-0.334,0.514-0.5,0.817-0.5c0.423,0,0.983,1.355,1.679,4.067c0.697,2.712,1.271,4.067,1.725,4.067
	c0.123,0,0.977-0.424,2.566-1.273c1.592-0.848,2.719-1.438,3.385-1.772v-0.997c-0.97,0-1.628-0.323-1.976-0.973
	c-0.349-0.65-0.682-1.654-0.999-3.021c-0.318-1.363-0.6-2.526-0.84-3.492c-0.243-0.967-0.454-1.448-0.637-1.448
	c-0.514,0-2.506,0.708-5.97,2.121c-3.469,1.416-5.201,2.238-5.201,2.471v24.902c0,2.132,0.682,4.151,2.043,6.065
	c1.361,1.912,2.8,2.87,4.314,2.87c0.454,0,1.725-0.457,3.815-1.373c2.088-0.913,3.209-1.373,3.36-1.373v-1.446
	C159.506,188.544,157.22,187.746,156.222,186.147z"/>
<path d="M182.924,160.147c0-1.101-0.522-2.331-1.566-3.694c-1.045-1.366-1.826-2.047-2.339-2.047c-0.514,0-2.498,0.708-5.949,2.121
	c-3.452,1.415-5.177,2.238-5.177,2.47v28.647c0,1.697-0.273,2.962-0.817,3.793c-0.606,0.866-1.243,1.299-1.908,1.299l0.727,1.597
	l9.309-4.292v-1.546c-0.757,0-1.256-0.268-1.497-0.802c-0.243-0.531-0.363-1.413-0.363-2.643v-9.384h4.086v13.675
	c0,0.6,0.288,1.24,0.862,1.92c0.576,0.685,1.196,1.175,1.862,1.475l4.952-3.044v-1.099c-1.454-0.331-2.181-1.414-2.181-3.244v-9.683
	l2.227-1.247v-1.199h-2.227V160.147z M177.429,173.221h-1.407l-2.679,1.3v-14.725c0.574-0.499,1.164-0.749,1.77-0.749
	c1.544,0,2.316,1.232,2.316,3.693V173.221z"/>
<path d="M193.551,186.147c-0.425-0.532-0.634-2.129-0.634-4.792v-20.411c0-1.697,0.271-2.962,0.817-3.793
	c0.604-0.866,1.24-1.297,1.907-1.297l-0.727-1.596l-9.31,4.291v1.548c0.757,0,1.255,0.267,1.498,0.799
	c0.242,0.531,0.363,1.412,0.363,2.645v21.659c0,1.465,0.485,2.813,1.453,4.043c0.969,1.23,1.938,2.121,2.907,2.67
	c0.968,0.549,1.733,0.824,2.292,0.824c0.561,0,2.854-0.933,6.88-2.795v-1.397c-1.938,0-3.707-0.2-5.312-0.601
	C194.989,187.746,194.278,187.146,193.551,186.147z"/>
<path d="M222.888,176.714c3.301-1.428,4.95-2.278,4.95-2.544v-14.022c0-1.101-0.522-2.331-1.565-3.694
	c-1.045-1.366-1.811-2.047-2.295-2.047c-0.483,0-2.392,1.117-5.721,3.344c0-0.565-0.303-1.198-0.91-1.896
	c-0.605-0.7-1.211-1.182-1.816-1.448l-4.587,2.846v1.097c1.24,0.267,1.863,1.416,1.863,3.444v25.852
	c0,1.697-0.274,2.962-0.817,3.793c-0.607,0.866-1.243,1.299-1.908,1.299l0.727,1.597l9.309-4.292v-1.546
	c-0.757,0-1.255-0.268-1.497-0.802c-0.243-0.531-0.363-1.413-0.363-2.643v-6.538l0.5-0.15c0.12,1.331,0.945,4.061,2.474,8.186
	c1.528,4.125,2.792,6.188,3.792,6.188c0.757,0,2.542-0.981,5.36-2.945v-1.496c-0.88,0-1.743-0.384-2.591-1.148
	C225.916,185.35,224.281,181.871,222.888,176.714z M222.343,173.621c0,0.599-0.483,1.173-1.454,1.722
	c-0.967,0.55-1.845,0.822-2.632,0.822v-16.218c0.634-0.499,1.226-0.749,1.771-0.749c1.544,0,2.315,1.23,2.315,3.694V173.621z"/>
<path d="M243.553,154.308c-0.514,0-2.497,0.708-5.949,2.121c-3.452,1.416-5.177,2.238-5.177,2.471v26.55
	c0,1.996,0.477,3.709,1.43,5.14c0.952,1.433,1.8,2.147,2.543,2.147c0.741,0,2.77-0.707,6.086-2.121
	c3.314-1.415,4.972-2.254,4.972-2.521v-28.048c0-1.098-0.522-2.328-1.565-3.694C244.847,154.989,244.066,154.308,243.553,154.308z
	 M241.963,187.345c-0.606,0.534-1.195,0.799-1.77,0.799c-1.545,0-2.317-1.229-2.317-3.692v-24.754
	c0.574-0.5,1.163-0.749,1.771-0.749c1.543,0,2.315,1.231,2.315,3.693V187.345z"/>
<path d="M258.085,186.147c-0.423-0.532-0.634-2.129-0.634-4.792v-20.411c0-1.697,0.271-2.962,0.817-3.793
	c0.605-0.866,1.242-1.297,1.908-1.297l-0.727-1.596l-9.312,4.291v1.548c0.757,0,1.256,0.267,1.5,0.799
	c0.24,0.531,0.363,1.412,0.363,2.645v21.659c0,1.465,0.483,2.813,1.452,4.043c0.971,1.23,1.938,2.121,2.908,2.67
	c0.968,0.549,1.733,0.824,2.293,0.824c0.561,0,2.854-0.933,6.88-2.795v-1.397c-1.938,0-3.708-0.2-5.312-0.601
	C259.524,187.746,258.813,187.146,258.085,186.147z"/>
<path d="M275.163,186.748c-0.667-0.633-0.998-2.796-0.998-6.49v-4.988h4.132l2.27-1.25v-1.196h-6.402v-13.175
	c0.24-0.334,0.513-0.5,0.817-0.5c0.423,0,0.983,1.355,1.679,4.067c0.697,2.712,1.271,4.067,1.725,4.067
	c0.123,0,0.976-0.424,2.566-1.273c1.591-0.848,2.718-1.438,3.386-1.772v-0.997c-0.971,0-1.628-0.323-1.977-0.973
	c-0.349-0.65-0.683-1.654-0.999-3.021c-0.318-1.363-0.6-2.526-0.84-3.492c-0.243-0.967-0.454-1.448-0.637-1.448
	c-0.514,0-2.506,0.708-5.97,2.121c-3.469,1.416-5.202,2.238-5.202,2.471v26.25c0,1.864,0.824,3.594,2.476,5.189
	c1.649,1.599,2.942,2.397,3.882,2.397c0.454,0,1.726-0.457,3.815-1.373c2.088-0.913,3.21-1.373,3.36-1.373v-1.446
	c-1.361,0-2.632-0.066-3.813-0.2C277.253,188.21,276.163,187.679,275.163,186.748z"/>
<path d="M298.231,154.406c-0.483,0-2.392,1.117-5.721,3.344c0-0.565-0.303-1.198-0.909-1.896c-0.604-0.7-1.211-1.182-1.816-1.448
	l-4.587,2.846v1.097c1.241,0.267,1.863,1.416,1.863,3.444v25.852c0,1.697-0.273,2.962-0.817,3.793
	c-0.606,0.866-1.243,1.299-1.908,1.299l0.728,1.597l9.308-4.292v-1.546c-0.757,0-1.255-0.268-1.497-0.802
	c-0.243-0.531-0.363-1.413-0.363-2.643v-5.041c1.573-0.531,3.564-1.331,5.971-2.397c2.409-1.063,3.611-1.712,3.611-1.945v-15.52
	c0-1.101-0.522-2.331-1.565-3.694C299.481,155.087,298.717,154.406,298.231,154.406z M296.598,175.118
	c0,0.599-0.483,1.173-1.453,1.722c-0.968,0.55-1.846,0.822-2.634,0.822v-17.715c0.635-0.499,1.227-0.749,1.771-0.749
	c1.543,0,2.315,1.23,2.315,3.694V175.118z"/>
<path d="M312.267,186.147c-0.425-0.532-0.634-2.129-0.634-4.792v-20.411c0-1.697,0.271-2.962,0.816-3.793
	c0.604-0.866,1.241-1.297,1.907-1.297l-0.727-1.596l-9.312,4.291v1.548c0.758,0,1.257,0.267,1.5,0.799
	c0.24,0.531,0.363,1.412,0.363,2.645v21.659c0,1.465,0.484,2.813,1.451,4.043c0.971,1.23,1.939,2.121,2.908,2.67
	s1.733,0.824,2.293,0.824c0.562,0,2.854-0.933,6.88-2.795v-1.397c-1.938,0-3.707-0.2-5.312-0.601
	C313.705,187.746,312.993,187.146,312.267,186.147z"/>
<path d="M337.925,160.147c0-1.101-0.522-2.331-1.565-3.694c-1.045-1.366-1.826-2.047-2.339-2.047c-0.515,0-2.497,0.708-5.949,2.121
	c-3.452,1.415-5.178,2.238-5.178,2.47v28.647c0,1.697-0.273,2.962-0.817,3.793c-0.606,0.866-1.243,1.299-1.908,1.299l0.728,1.597
	l9.308-4.292v-1.546c-0.757,0-1.255-0.268-1.496-0.802c-0.243-0.531-0.363-1.413-0.363-2.643v-9.384h4.086v13.675
	c0,0.6,0.288,1.24,0.862,1.92c0.577,0.685,1.197,1.175,1.863,1.475l4.951-3.044v-1.099c-1.454-0.331-2.182-1.414-2.182-3.244v-9.683
	l2.226-1.247v-1.199h-2.226V160.147z M332.43,173.221h-1.406l-2.68,1.3v-14.725c0.574-0.499,1.163-0.749,1.771-0.749
	c1.544,0,2.315,1.232,2.315,3.693V173.221z"/>
<path d="M353.412,154.258l-4.358,2.843v1.099l0.498,0.099c0.302,0.101,0.605,0.423,0.908,0.975c0.303,0.547,0.454,1.305,0.454,2.269
	v10.431l-0.727,0.351l-5.223-18.017h-1.771l-4.722,3.043v1.049c0.483,0,0.847,0.018,1.087,0.05c0.243,0.032,0.517,0.173,0.818,0.423
	c0.303,0.25,0.53,0.624,0.681,1.123l4.543,14.971v10.53c0,1.265-0.107,2.347-0.318,3.245c-0.304,1.265-1.106,2.063-2.407,2.395
	l0.727,1.599l9.264-4.441v-1.398c-0.757,0-1.247-0.207-1.476-0.624c-0.227-0.415-0.339-1.172-0.339-2.271v-9.382
	c3.389-1.332,5.086-2.277,5.086-2.845V157.5c0-0.664-0.394-1.372-1.181-2.121C354.168,154.632,353.654,154.258,353.412,154.258z"/>
<path d="M367.719,186.896c-0.668,0-1.137-0.192-1.408-0.574c-0.272-0.381-0.408-1.021-0.408-1.922v-23.456
	c0-1.697,0.271-2.962,0.817-3.793c0.604-0.866,1.242-1.297,1.908-1.297l-0.727-1.596l-9.312,4.291v1.548
	c0.757,0,1.257,0.267,1.5,0.799c0.24,0.531,0.363,1.412,0.363,2.645v22.808c0,1.63-0.318,2.846-0.955,3.643
	c-0.24,0.3-0.538,0.566-0.884,0.799c-0.349,0.232-0.645,0.349-0.887,0.349l0.728,1.599c0.029,0,3.116-1.479,9.264-4.441V186.896z"/>
<path d="M385.43,185.35v-25.104c0-1.165-0.424-2.446-1.271-3.845c-0.85-1.396-1.757-2.094-2.724-2.094
	c-0.427,0-1.758,0.698-3.997,2.094c-0.85,0.534-1.363,0.851-1.544,0.95c0-0.7-0.25-1.314-0.75-1.846
	c-0.5-0.534-0.901-0.856-1.203-0.975c-0.304-0.116-0.562-0.206-0.772-0.272c-3.089,1.995-4.74,3.01-4.951,3.043v1.099
	c0.637,0,1.166,0.398,1.59,1.195c0.424,0.8,0.636,1.749,0.636,2.846v24.605c0,2.063-0.317,3.56-0.954,4.49
	c-0.574,0.798-1.166,1.199-1.77,1.199l0.727,1.597l9.309-4.292v-1.546c-0.635,0-1.105-0.242-1.406-0.726
	c-0.305-0.481-0.454-1.39-0.454-2.719v-25.603c1.604,0,2.686,0.383,3.245,1.148c0.563,0.766,0.841,2.197,0.841,4.291v24.455
	c0,0.6,0.289,1.24,0.863,1.92c0.575,0.685,1.195,1.175,1.862,1.475l4.95-3.044v-1.099C386.172,188.263,385.43,187.18,385.43,185.35z
	"/>
<path d="M402.619,159.247c-0.318-1.363-0.6-2.526-0.841-3.492c-0.243-0.967-0.454-1.448-0.637-1.448
	c-0.514,0-2.507,0.708-5.971,2.121c-3.469,1.416-5.201,2.238-5.201,2.471v26.55c0,1.996,0.479,3.709,1.431,5.14
	c0.953,1.433,1.8,2.147,2.542,2.147c0.743,0,2.771-0.707,6.087-2.121c3.314-1.415,4.973-2.254,4.973-2.521v-11.18
	c0-0.598-0.303-1.239-0.908-1.92c-0.605-0.683-1.226-1.173-1.862-1.475l-4.587,2.846v1.1c1.24,0.267,1.862,1.412,1.862,3.443v6.437
	c-0.605,0.534-1.196,0.799-1.771,0.799c-1.544,0-2.315-1.229-2.315-3.692v-24.803c0.24-0.334,0.513-0.5,0.817-0.5
	c0.423,0,0.982,1.355,1.68,4.067c0.696,2.712,1.271,4.067,1.725,4.067c0.122,0,0.976-0.424,2.566-1.273
	c1.592-0.848,2.717-1.438,3.385-1.772v-0.997c-0.971,0-1.628-0.323-1.977-0.973C403.269,161.617,402.936,160.613,402.619,159.247z"
	/>
<path d="M430.369,159.247c-0.319-1.363-0.601-2.526-0.841-3.492c-0.243-0.967-0.454-1.448-0.638-1.448
	c-0.514,0-2.505,0.708-5.97,2.121c-3.47,1.416-5.202,2.238-5.202,2.471v26.55c0,1.996,0.479,3.709,1.432,5.14
	c0.952,1.433,1.801,2.147,2.541,2.147c0.743,0,2.771-0.707,6.087-2.121c3.314-1.415,4.974-2.254,4.974-2.521v-11.18
	c0-0.598-0.304-1.239-0.908-1.92c-0.606-0.683-1.227-1.173-1.861-1.475l-4.589,2.846v1.1c1.24,0.267,1.863,1.412,1.863,3.443v6.437
	c-0.606,0.534-1.197,0.799-1.771,0.799c-1.543,0-2.315-1.229-2.315-3.692v-24.803c0.24-0.334,0.515-0.5,0.817-0.5
	c0.424,0,0.983,1.355,1.68,4.067c0.697,2.712,1.271,4.067,1.725,4.067c0.122,0,0.978-0.424,2.566-1.273
	c1.592-0.848,2.719-1.438,3.385-1.772v-0.997c-0.969,0-1.628-0.323-1.976-0.973C431.019,161.617,430.685,160.613,430.369,159.247z"
	/>
<path d="M454.051,188.594c-1.454-0.331-2.181-1.414-2.181-3.244v-9.683l2.227-1.247v-1.199h-2.227v-13.073
	c0-1.101-0.522-2.331-1.566-3.694c-1.044-1.366-1.825-2.047-2.34-2.047c-0.514,0-2.497,0.708-5.949,2.121
	c-3.451,1.415-5.177,2.238-5.177,2.47v28.647c0,1.697-0.272,2.962-0.817,3.793c-0.606,0.866-1.243,1.299-1.907,1.299l0.727,1.597
	l9.31-4.292v-1.546c-0.758,0-1.257-0.268-1.497-0.802c-0.243-0.531-0.363-1.413-0.363-2.643v-9.384h4.086v13.675
	c0,0.6,0.289,1.24,0.862,1.92c0.576,0.685,1.195,1.175,1.862,1.475l4.951-3.044V188.594z M446.375,173.221h-1.407l-2.679,1.3
	v-14.725c0.574-0.499,1.163-0.749,1.77-0.749c1.545,0,2.316,1.232,2.316,3.693V173.221z"/>
<path d="M480.937,185.35v-25.104c0-1.165-0.424-2.446-1.271-3.845c-0.849-1.396-1.758-2.094-2.726-2.094
	c-0.483,0-1.907,0.664-4.27,1.995c-1.181,0.667-1.8,1.016-1.862,1.048c-0.333-0.831-0.823-1.546-1.475-2.145
	c-0.651-0.6-1.242-0.899-1.771-0.899c-0.531,0-1.916,0.698-4.156,2.094c-0.849,0.534-1.363,0.851-1.543,0.95
	c0-0.7-0.25-1.314-0.751-1.846c-0.499-0.534-0.901-0.856-1.203-0.975c-0.303-0.116-0.561-0.206-0.771-0.272
	c-3.089,1.995-4.741,3.01-4.95,3.043v1.099c0.635,0,1.165,0.398,1.589,1.195c0.423,0.8,0.637,1.749,0.637,2.846v25.203
	c0,1.697-0.273,2.962-0.817,3.793c-0.607,0.866-1.243,1.299-1.908,1.299l0.727,1.597l9.309-4.292v-1.546
	c-0.757,0-1.255-0.268-1.496-0.802c-0.243-0.531-0.363-1.413-0.363-2.643v-25.603c1.604,0,2.687,0.383,3.244,1.148
	c0.563,0.766,0.842,2.197,0.842,4.291v24.455c0,0.6,0.288,1.24,0.862,1.92c0.577,0.685,1.195,1.175,1.863,1.475l4.95-3.044v-1.099
	c-1.483-0.331-2.227-1.414-2.227-3.244v-25.902c1.545,0.066,2.612,0.49,3.204,1.274c0.589,0.779,0.884,2.17,0.884,4.165v24.455
	c0,0.6,0.287,1.24,0.864,1.92c0.574,0.685,1.196,1.175,1.86,1.475l4.951-3.044v-1.099
	C481.679,188.263,480.937,187.18,480.937,185.35z"/>
<path d="M491.927,186.748c-0.667-0.633-0.998-2.796-0.998-6.49v-4.988h4.132l2.271-1.25v-1.196h-6.403v-13.175
	c0.24-0.334,0.515-0.5,0.817-0.5c0.423,0,0.982,1.355,1.68,4.067s1.271,4.067,1.725,4.067c0.122,0,0.977-0.424,2.566-1.273
	c1.592-0.848,2.719-1.438,3.385-1.772v-0.997c-0.97,0-1.628-0.323-1.977-0.973c-0.349-0.65-0.682-1.654-0.997-3.021
	c-0.319-1.363-0.601-2.526-0.842-3.492c-0.242-0.967-0.454-1.448-0.637-1.448c-0.514,0-2.505,0.708-5.971,2.121
	c-3.469,1.416-5.199,2.238-5.199,2.471v26.25c0,1.864,0.822,3.594,2.474,5.189c1.651,1.599,2.943,2.397,3.883,2.397
	c0.453,0,1.725-0.457,3.816-1.373c2.088-0.913,3.209-1.373,3.359-1.373v-1.446c-1.362,0-2.633-0.066-3.813-0.2
	S492.927,187.679,491.927,186.748z"/>
<g>
	<path d="M532.888,130.679c-3.137,0-4.006,1.385-4.238,3.443c0.895,0.699,1.842,1.219,2.835,1.568
		c-0.21-0.572,0.025-0.927,1.747-0.927c2.212,0,10.764,2.807,10.764,3.314c0,0.569-8.552,3.314-10.764,3.314
		c-3.233,0-0.813-1.484-0.813-3.314c0-0.544-0.242-1.057-0.486-1.508v1.355v1.375c-1.2,0.189-2.304,0.557-3.359,1.01
		c0.041,2.777,0.539,4.775,4.315,4.775c4.814,0,23.401-5.964,23.401-7.203C556.289,136.78,537.702,130.679,532.888,130.679z"/>
</g>
<g>
	<path d="M531.932,137.925c-0.647,0-1.334,0-2.014,0c-0.084,0.808-0.574,1.536-1.35,2.105c0.001,0.092,0.001,0.187,0.004,0.279
		c1.056-0.454,2.159-0.821,3.359-1.01V137.925z"/>
</g>
<g>
	<path d="M529.953,137.692c0,0.079-0.028,0.155-0.035,0.232c0.68,0,1.366,0,2.014,0v-1.355c-0.176-0.329-0.353-0.626-0.447-0.88
		c-0.993-0.349-1.94-0.869-2.835-1.568c-0.043,0.389-0.069,0.803-0.077,1.236C529.419,135.982,529.953,136.793,529.953,137.692z"/>
</g>
<g>
	<path fill="#FFFFFF" d="M531.932,135.858c-0.15-0.045-0.298-0.114-0.447-0.168c0.095,0.253,0.271,0.551,0.447,0.88V135.858z"/>
</g>
<path d="M519.195,137.202c-5.955-0.155-12.831-0.292-20.521-0.413c-9.45-0.152-20.116-0.325-31.757-0.512
	c-11.636-0.116-24.243-0.246-37.576-0.383c-13.335-0.167-27.396-0.116-41.942-0.187c-20.286,0.125-41.793,0.347-63.476,0.534
	c0.126,0.542,0.201,1.099,0.201,1.673c0,0.879-0.191,1.712-0.476,2.503c28.654,0.007,53.271,0.026,63.75,0.091
	c14.547-0.071,28.607-0.02,41.942-0.187c13.333-0.138,25.94-0.267,37.576-0.383c11.641-0.187,22.307-0.359,31.757-0.511
	c7.828-0.123,14.813-0.263,20.842-0.422c-0.25-0.407-0.396-0.848-0.396-1.312C519.119,137.524,519.16,137.366,519.195,137.202z"/>
<path d="M233.212,136.548c-95.428,0.142-177.396,0.265-184.673,0.275c0.11,0.28,0.186,0.567,0.186,0.869
	c0,0.211-0.041,0.413-0.095,0.613c3.985,0.211,29.189,1.282,140.642,2.004c8.376,0.052,24.547,0.075,44.26,0.089
	c-0.281-0.785-0.469-1.611-0.469-2.484C233.064,137.447,233.128,136.993,233.212,136.548z"/>
<path d="M278.877,129.758c-4.619,0-8.362,2.981-8.66,6.734c5.758-0.008,11.534-0.015,17.317-0.024
	C287.222,132.726,283.486,129.758,278.877,129.758z"/>
<path d="M278.877,144.164c3.292,0,6.123-1.527,7.606-3.751c-5.093,0-10.179-0.002-15.213-0.002
	C272.754,142.637,275.585,144.164,278.877,144.164z"/>
<path d="M287.534,136.468c-5.784,0.009-11.559,0.016-17.317,0.024c-0.012,0.159-0.056,0.31-0.056,0.469
	c0,1.256,0.425,2.422,1.11,3.45c5.034,0,10.12,0.002,15.213,0.002c0.687-1.03,1.11-2.194,1.11-3.452
	C287.594,136.792,287.549,136.634,287.534,136.468z"/>
<path d="M257.312,132.231c-3.032,0-5.556,1.846-6.121,4.292c4.065-0.007,8.146-0.013,12.24-0.02
	C262.857,134.068,260.336,132.231,257.312,132.231z"/>
<path d="M257.312,142.88c2.213,0,4.146-0.99,5.253-2.471c-3.551,0-7.059,0-10.511-0.003
	C253.164,141.891,255.098,142.88,257.312,142.88z"/>
<path d="M263.431,136.503c-4.095,0.007-8.175,0.013-12.24,0.02c-0.078,0.333-0.123,0.678-0.123,1.032
	c0,1.052,0.37,2.026,0.987,2.852c3.452,0.003,6.96,0.003,10.511,0.003c0.62-0.826,0.99-1.801,0.99-2.854
	C263.555,137.195,263.511,136.843,263.431,136.503z"/>
<g>
	<path d="M47.994,136.824c0,0,0.197,0,0.545,0c-0.458-1.175-1.811-2.102-3.563-2.474c-0.817,0.891-1.659,1.734-2.549,2.482v0.807
		v0.036c1.67,0.716,3.162,1.611,4.57,2.592c0.839-0.512,1.426-1.191,1.633-1.961c-0.453-0.023-0.636-0.037-0.636-0.037V136.824z"/>
</g>
<g>
	<path d="M39.75,139.146c-0.058,0.363-0.149,0.709-0.243,1.06c0.979,0.63,2.32,1.02,3.803,1.02c0.263,0,0.516-0.028,0.77-0.052
		c-1.354-0.968-2.785-1.665-4.295-2.084C39.775,139.11,39.759,139.127,39.75,139.146z"/>
</g>
<g>
	<path d="M42.427,138.097c-0.78-0.26-1.534-0.346-2.274-0.46c-0.043,0.51-0.156,1.003-0.369,1.454
		c1.51,0.419,2.941,1.116,4.295,2.084c1.121-0.103,2.128-0.425,2.918-0.908c-1.408-0.98-2.9-1.875-4.57-2.592V138.097z"/>
</g>
<g>
	<path d="M39.737,135.058c0.024,0.148,0.042,0.299,0.061,0.449c0.235,0.505,0.361,1.061,0.381,1.639
		c0.732,0.183,1.478,0.354,2.249,0.493v-0.807c0.89-0.748,1.731-1.592,2.549-2.482c-0.528-0.113-1.082-0.189-1.667-0.189
		C41.934,134.161,40.692,134.507,39.737,135.058z"/>
</g>
<g>
	<path d="M40.193,137.282c0,0.12-0.029,0.234-0.04,0.354c0.74,0.114,1.494,0.2,2.274,0.46v-0.422v-0.036
		c-0.771-0.138-1.517-0.31-2.249-0.493C40.179,137.193,40.193,137.236,40.193,137.282z"/>
</g>
<g>
	<path d="M48.539,136.824c-0.348,0-0.545,0-0.545,0v1.445c0,0,0.184,0.013,0.636,0.037c0.054-0.2,0.095-0.402,0.095-0.613
		C48.725,137.391,48.649,137.104,48.539,136.824z"/>
</g>
<g>
	<path d="M20.675,134.735c1.13-2.437,3.793-4.151,6.899-4.151c2.287,0,4.311,0.951,5.683,2.413c0.571-0.2,1.186-0.32,1.834-0.32
		c1.636,0,3.076,0.708,4.01,1.789c0.164-0.069,0.329-0.113,0.49-0.193c-0.976-4.361-4.278-7.542-11.283-7.542
		c-5.08,0-9.352,3.011-10.929,7.172c0.224-0.034,0.453-0.062,0.689-0.062C19.069,133.84,19.974,134.184,20.675,134.735z"/>
</g>
<g>
	<path d="M35.091,141.893c-0.619,0-1.205-0.113-1.755-0.298c-1.372,1.514-3.43,2.501-5.762,2.501c-3.034,0-5.635-1.643-6.807-3.992
		c-0.713,0.594-1.655,0.964-2.7,0.964c-0.276,0-0.546-0.025-0.807-0.073c1.268,4.084,4.697,7.022,9.716,7.022
		c7.213,0,11.333-3.319,12.53-7.81c-0.107-0.071-0.195-0.151-0.295-0.226C38.285,141.133,36.79,141.893,35.091,141.893z"/>
</g>
<g>
	<path d="M39.582,135.142c0.049-0.033,0.105-0.056,0.155-0.084c-0.042-0.265-0.088-0.527-0.146-0.785
		c-0.161,0.08-0.326,0.125-0.49,0.193C39.283,134.677,39.441,134.902,39.582,135.142z"/>
</g>
<g>
	<path d="M39.212,139.981c0.1,0.075,0.188,0.155,0.295,0.226c0.094-0.351,0.186-0.697,0.243-1.06
		C39.604,139.443,39.421,139.721,39.212,139.981z"/>
</g>
<g>
	<path d="M39.737,135.058c-0.05,0.028-0.106,0.051-0.155,0.084c0.072,0.12,0.156,0.236,0.216,0.365
		C39.779,135.356,39.761,135.206,39.737,135.058z"/>
</g>
<g>
	<path d="M527.698,137.925v-0.065c-1.312-1.047-2.524-2.295-3.68-3.665c-2.492,0.157-4.48,1.404-4.823,3.007
		c1.367,0.037,2.701,0.073,3.967,0.111v1.588c-1.167,0.034-2.393,0.069-3.646,0.103c0.582,0.949,1.782,1.684,3.275,2.018
		c1.497-1.086,3.121-2.03,4.907-2.796V137.925z"/>
</g>
<g>
	<path d="M528.568,140.03c-0.003-0.669,0.008-1.368,0.008-2.105c-0.293,0-0.599,0-0.878,0v0.301c-1.786,0.766-3.41,1.71-4.907,2.796
		c0.55,0.122,1.131,0.204,1.745,0.204C526.146,141.226,527.576,140.76,528.568,140.03z"/>
</g>
<g>
	<path d="M527.698,137.86v0.065c0.279,0,0.585,0,0.878,0c0-0.015,0-0.028,0-0.043c0-0.891-0.021-1.736-0.004-2.523
		c-0.994-0.729-2.424-1.198-4.036-1.198c-0.176,0-0.343,0.023-0.518,0.035C525.174,135.565,526.387,136.813,527.698,137.86z"/>
</g>
<g>
	<path d="M528.568,140.03c0.775-0.57,1.266-1.297,1.35-2.105c-0.459,0-0.896,0-1.342,0
		C528.576,138.662,528.565,139.361,528.568,140.03z"/>
</g>
<g>
	<path d="M528.572,135.358c-0.018,0.788,0.004,1.633,0.004,2.523c0,0.015,0,0.028,0,0.043c0.445,0,0.883,0,1.342,0
		c0.007-0.078,0.035-0.153,0.035-0.232C529.953,136.793,529.419,135.982,528.572,135.358z"/>
</g>
<g>
	<path d="M523.162,137.313c-1.266-0.039-2.6-0.075-3.967-0.111c-0.035,0.164-0.076,0.322-0.076,0.49
		c0,0.464,0.146,0.905,0.396,1.312c1.254-0.034,2.479-0.069,3.646-0.103V137.313z"/>
</g>
<path d="M241.526,134.417c-1.675,0-3.113,0.875-3.732,2.125c2.479-0.005,4.965-0.009,7.458-0.011
	C244.63,135.288,243.197,134.417,241.526,134.417z"/>
<path d="M241.526,141.411c1.109,0,2.112-0.385,2.846-1.007c-1.923-0.002-3.822-0.002-5.694-0.002
	C239.41,141.024,240.415,141.411,241.526,141.411z"/>
<path d="M245.586,137.914c0-0.493-0.122-0.959-0.334-1.383c-2.493,0.002-4.979,0.006-7.458,0.011
	c-0.208,0.421-0.326,0.884-0.326,1.372c0,0.974,0.463,1.854,1.21,2.488c1.872,0,3.771,0,5.694,0.002
	C245.12,139.77,245.586,138.89,245.586,137.914z"/>
<path d="M305.956,136.387c-0.627-2.377-3.106-4.156-6.08-4.156c-3.008,0-5.516,1.815-6.108,4.227c0.639,0,1.276-0.002,1.916-0.002
	C299.104,136.434,302.529,136.41,305.956,136.387z"/>
<path d="M299.876,142.88c2.211,0,4.142-0.988,5.252-2.465c-3.482-0.002-6.988-0.002-10.504-0.002
	C295.73,141.893,297.664,142.88,299.876,142.88z"/>
<path d="M305.956,136.387c-3.427,0.023-6.853,0.047-10.272,0.069c-0.64,0-1.277,0.002-1.916,0.002
	c-0.088,0.355-0.136,0.721-0.136,1.097c0,1.054,0.369,2.03,0.992,2.858c3.516,0,7.021,0,10.504,0.002
	c0.622-0.828,0.992-1.807,0.992-2.86C306.12,137.153,306.058,136.764,305.956,136.387z"/>
<path d="M315.66,141.411c1.102,0,2.098-0.38,2.828-0.996c-1.873,0-3.758,0-5.658,0C313.561,141.031,314.56,141.411,315.66,141.411z"
	/>
<path d="M315.66,134.417c-1.579,0-2.934,0.787-3.604,1.923c2.392-0.019,4.783-0.037,7.175-0.058
	C318.547,135.178,317.213,134.417,315.66,134.417z"/>
<path d="M311.602,137.914c0,0.982,0.473,1.867,1.229,2.501c1.9,0,3.785,0,5.658,0c0.757-0.634,1.229-1.519,1.229-2.501
	c0-0.594-0.187-1.143-0.487-1.633c-2.392,0.021-4.783,0.039-7.175,0.058C311.775,136.815,311.602,137.344,311.602,137.914z"/>
<path d="M94.167,84.097c0.179-0.093,0.302-0.185,0.469-0.277c-2.736-0.069-5.27-0.135-7.599-0.2v2.497
	C89.168,86.116,91.543,85.443,94.167,84.097z"/>
<path d="M94.167,84.097c-2.624,1.347-4.999,2.02-7.13,2.02v-2.497c-0.885-0.024-1.734-0.049-2.564-0.073l-1.163-0.028l0.929,3.89
	l8.741-0.688l2.938-2.869c-0.433-0.011-0.858-0.022-1.281-0.03C94.469,83.912,94.346,84.004,94.167,84.097z"/>
<path d="M87.037,83.619c2.33,0.065,4.863,0.131,7.599,0.2c0.013-0.008,0.023-0.015,0.036-0.022l-7.635-0.189V83.619z"/>
<path d="M95.917,83.85l0.022-0.022l-1.267-0.03c-0.013,0.007-0.023,0.014-0.036,0.022C95.059,83.828,95.484,83.838,95.917,83.85z"/>
<path d="M87.037,83.608l-2.564-0.063c0.83,0.024,1.679,0.049,2.564,0.073V83.608z"/>
<g>
	<path d="M17.378,133.902c-1.877,0.297-3.309,1.77-3.309,3.549c0,1.747,1.372,3.205,3.191,3.543
		c-0.353-1.136-0.567-2.345-0.567-3.623C16.693,136.15,16.964,134.996,17.378,133.902z"/>
</g>
<g>
	<path d="M20.767,140.103c-0.423-0.845-0.671-1.778-0.671-2.765c0-0.923,0.208-1.8,0.58-2.603c-0.701-0.551-1.606-0.895-2.608-0.895
		c-0.236,0-0.465,0.028-0.689,0.062c-0.414,1.093-0.685,2.248-0.685,3.469c0,1.278,0.215,2.487,0.567,3.623
		c0.261,0.047,0.53,0.073,0.807,0.073C19.112,141.067,20.054,140.697,20.767,140.103z"/>
</g>
<g>
	<path d="M22.068,137.451c0-1.088-0.546-2.054-1.393-2.716c-0.371,0.803-0.58,1.68-0.58,2.603c0,0.987,0.249,1.92,0.671,2.765
		C21.562,139.443,22.068,138.503,22.068,137.451z"/>
</g>
<g>
	<path d="M39.75,139.146c0.009-0.02,0.025-0.037,0.034-0.056c-0.009-0.004-0.018-0.009-0.028-0.011
		C39.752,139.101,39.753,139.125,39.75,139.146z"/>
</g>
<g>
	<path d="M39.756,139.08c0.01,0.002,0.019,0.007,0.028,0.011c0.213-0.451,0.326-0.944,0.369-1.454
		c-0.086-0.015-0.172-0.034-0.258-0.049C39.886,138.097,39.83,138.592,39.756,139.08z"/>
</g>
<g>
	<path d="M40.178,137.146c-0.02-0.579-0.146-1.134-0.381-1.639c0.063,0.512,0.099,1.037,0.108,1.57
		C39.997,137.101,40.085,137.125,40.178,137.146z"/>
</g>
<g>
	<path d="M40.178,137.146c-0.093-0.021-0.181-0.045-0.272-0.069c0.001,0.099,0.01,0.196,0.01,0.294c0,0.074-0.019,0.142-0.021,0.215
		c0.086,0.015,0.172,0.035,0.258,0.049c0.011-0.12,0.04-0.234,0.04-0.354C40.193,137.236,40.179,137.193,40.178,137.146z"/>
</g>
<g>
	<path d="M37.891,137.692c0-0.376,0.114-0.731,0.282-1.071v-1.792c0.314-0.086,0.619-0.237,0.928-0.364
		c-0.934-1.082-2.374-1.789-4.01-1.789c-0.648,0-1.263,0.121-1.834,0.32c0.59,0.63,1.051,1.351,1.356,2.146
		c0.238-0.09,0.49-0.155,0.759-0.155c1.218,0,2.203,0.992,2.203,2.213c0,1.221-0.985,2.213-2.203,2.213
		c-0.238,0-0.457-0.066-0.671-0.136c-0.287,0.858-0.75,1.639-1.365,2.315c0.55,0.185,1.136,0.298,1.755,0.298
		c1.699,0,3.194-0.759,4.121-1.912C38.4,139.361,37.891,138.57,37.891,137.692z"/>
</g>
<g>
	<path d="M38.173,136.621c0.28-0.57,0.76-1.078,1.409-1.479c-0.141-0.239-0.298-0.465-0.481-0.676
		c-0.309,0.127-0.613,0.278-0.928,0.364V136.621z"/>
</g>
<g>
	<path d="M38.173,138.749v-1.65v-0.465v-0.013c-0.167,0.34-0.282,0.695-0.282,1.071c0,0.878,0.509,1.669,1.321,2.289
		c0.209-0.26,0.392-0.538,0.538-0.834c0.003-0.021,0.002-0.045,0.006-0.067C39.238,138.938,38.71,138.826,38.173,138.749z"/>
</g>
<g>
	<path d="M38.173,138.749c0.537,0.078,1.065,0.189,1.583,0.331c0.074-0.488,0.13-0.983,0.139-1.493
		c-0.581-0.097-1.155-0.219-1.722-0.488V138.749z"/>
</g>
<g>
	<path d="M38.173,136.621v0.013c0.57,0.145,1.149,0.295,1.733,0.443c-0.009-0.533-0.045-1.058-0.108-1.57
		c-0.06-0.129-0.144-0.245-0.216-0.365C38.933,135.543,38.453,136.051,38.173,136.621z"/>
</g>
<g>
	<path d="M38.173,137.099c0.567,0.269,1.141,0.391,1.722,0.488c0.001-0.073,0.021-0.142,0.021-0.215c0-0.099-0.009-0.195-0.01-0.294
		c-0.583-0.148-1.163-0.299-1.733-0.443V137.099z"/>
</g>
<g>
	<path d="M33.172,137.202c0-0.951,0.604-1.747,1.441-2.059c-0.305-0.796-0.766-1.516-1.356-2.146
		c-1.907,0.667-3.265,2.33-3.265,4.285c0,1.985,1.397,3.665,3.344,4.313c0.615-0.676,1.078-1.457,1.365-2.315
		C33.82,138.989,33.172,138.185,33.172,137.202z"/>
</g>
</svg>
